<svg width="23" height="23" viewBox="0 0 23 23" fill="none" xmlns="http://www.w3.org/2000/svg">
<g clip-path="url(#clip0)">
<path d="M8.75003 8.67004H9.15003V8.27004V5.66027C9.15003 4.02571 9.66324 2.71746 10.5381 1.81984C11.4118 0.923314 12.6815 0.400071 14.2659 0.4C14.266 0.4 14.2662 0.4 14.2663 0.4L17.2481 0.404785C17.2481 0.404785 17.2481 0.404785 17.2481 0.404785C17.2481 0.404785 17.2481 0.404785 17.2482 0.404785C17.2863 0.404909 17.3171 0.43593 17.3171 0.473763V3.98487C17.3171 4.02312 17.286 4.05385 17.2483 4.05385H17.2482L15.2391 4.05457C15.2391 4.05457 15.239 4.05457 15.239 4.05457C14.5151 4.05459 13.9547 4.1916 13.6006 4.59265C13.257 4.98182 13.2006 5.52175 13.2006 6.05771V8.27004V8.67004H13.6006H17.1081C17.1266 8.67004 17.1442 8.67748 17.1568 8.69008C17.1702 8.70352 17.1773 8.72124 17.1773 8.73919C17.1773 8.73921 17.1773 8.73923 17.1773 8.73925L17.1759 12.5204V12.5205C17.1759 12.5587 17.1451 12.5895 17.1069 12.5895H13.6006H13.2006V12.9895V22.5308C13.2006 22.5689 13.1697 22.5998 13.1316 22.5998H9.21901C9.18078 22.5998 9.15003 22.569 9.15003 22.5308V12.9895V12.5895H8.75003H5.7512C5.71309 12.5895 5.68223 12.5586 5.68223 12.5205V8.73925C5.68223 8.70077 5.71325 8.67004 5.7512 8.67004H8.75003Z" stroke="white" stroke-width="0.8"/>
</g>
<defs>
<clipPath id="clip0">
<rect width="23" height="22.9998" fill="white"/>
</clipPath>
</defs>
</svg>
