<svg width="23" height="23" viewBox="0 0 23 23" fill="none" xmlns="http://www.w3.org/2000/svg">
<g clip-path="url(#clip0)">
<path d="M22.8682 4.23952C22.7511 4.12242 22.5559 4.08337 22.3997 4.12242L21.6189 4.39571C22.0874 3.84918 22.3997 3.26359 22.5949 2.71706C22.673 2.52187 22.634 2.36572 22.5168 2.24858C22.3997 2.13148 22.2045 2.09243 22.0483 2.17048C20.9553 2.63897 20.0183 3.02935 19.2376 3.26355C19.2376 3.3026 19.1985 3.26355 19.1595 3.26355C18.5348 2.91221 17.0123 2.13143 15.9193 2.13143C13.1475 2.17048 10.9223 4.51281 10.9223 7.36262V7.51877C6.86229 6.73799 4.63711 5.56683 2.21668 3.02931L1.82639 2.63892L1.59214 3.1074C0.264835 5.64492 1.20176 7.9482 2.72426 9.50976C2.02158 9.39266 1.5531 9.15842 1.12366 8.80708C0.967515 8.68998 0.772321 8.65093 0.577127 8.76803C0.420981 8.84612 0.342885 9.08032 0.381933 9.27551C0.928467 11.1103 2.29482 12.5938 3.77828 13.4917C3.0756 13.4917 2.49002 13.4136 1.90444 13.0232C1.74829 12.9451 1.51405 12.9451 1.3579 13.0622C1.20176 13.1794 1.12366 13.3745 1.20176 13.5697C1.90444 15.5607 3.27079 16.6147 5.45698 16.888C4.32486 17.5517 2.8414 18.0982 0.538124 18.1373C0.303883 18.1373 0.108689 18.2934 0.0306381 18.4886C-0.0474574 18.7229 0.0306381 18.9181 0.186784 19.0742C1.59219 20.2063 4.71525 20.87 8.58008 20.87C15.4509 20.87 21.0724 14.7409 21.0724 7.20648V7.08938C21.9313 6.65994 22.634 5.84012 22.9853 4.708C23.0243 4.55181 22.9853 4.35662 22.8682 4.23952ZM20.5259 6.4647L20.2916 6.5428V7.20648C20.2916 14.3115 15.0214 20.0892 8.58003 20.0892C5.02749 20.0892 2.64616 19.5036 1.3579 18.879C4.05157 18.6838 5.61312 17.825 6.82333 16.888L7.7993 16.1854H6.62814C4.40296 16.1854 3.0366 15.5607 2.25582 14.0773C2.9585 14.3115 3.70023 14.3115 4.52005 14.2725C4.83235 14.2334 5.14468 14.2334 5.45698 14.2334L5.57407 13.4526C4.09062 13.0232 2.33387 11.6959 1.475 9.90014C2.25578 10.2515 3.1146 10.3296 3.89538 10.3296H5.10559L4.12967 9.62685C3.30984 9.04127 0.889464 6.97223 2.06063 4.00528C4.5591 6.4647 6.94048 7.59682 11.2347 8.37759L11.7032 8.45569V7.36262C11.7032 4.94224 13.577 2.95126 15.9194 2.91221C16.8172 2.87316 18.3007 3.69299 18.7301 3.92723C18.9644 4.04433 19.1986 4.08337 19.4328 4.00532C20.0184 3.81013 20.7211 3.53684 21.5018 3.22455C21.1505 3.81013 20.682 4.35666 20.0574 4.86419C19.9013 4.98129 19.8622 5.21553 19.9403 5.41073C20.0184 5.60592 20.2526 5.68402 20.4478 5.60592L21.9703 5.09844C21.697 5.60588 21.2676 6.19146 20.5259 6.4647Z" fill="white"/>
</g>
<defs>
<clipPath id="clip0">
<rect width="23" height="23" fill="white"/>
</clipPath>
</defs>
</svg>
