<svg width="23" height="18" viewBox="0 0 23 18" fill="none" xmlns="http://www.w3.org/2000/svg">
<path d="M22.7696 4.35383C22.7696 4.27702 22.5392 2.58757 21.8097 1.78123C20.9265 0.821311 19.9666 0.706119 19.4675 0.667692H19.3139C16.2037 0.437308 11.5577 0.398926 11.4809 0.398926C11.4425 0.398926 6.75799 0.437308 3.68619 0.744502H3.57099C3.03337 0.782884 2.07345 0.898076 1.22873 1.85799C0.460768 2.66434 0.230384 4.39221 0.230384 4.46902C0.230384 4.46902 0 6.42729 0 8.38555V10.1902C0 12.1101 0.230384 14.0684 0.230384 14.1068C0.230384 14.1836 0.460768 15.873 1.1903 16.6794C1.99664 17.6009 2.95656 17.7161 3.57095 17.7929C3.68614 17.7929 3.76295 17.7929 3.87814 17.8313C5.6444 17.9849 11.2504 18.0617 11.4808 18.0617C11.5192 18.0617 16.2037 18.0617 19.3139 17.7161H19.4291C19.9666 17.6777 20.9265 17.5625 21.7713 16.6026C22.5392 15.7962 22.7696 14.0683 22.7696 13.9915C22.7696 13.9915 23 12.0333 23 10.075V8.27036C23 6.35048 22.7696 4.39221 22.7696 4.35383ZM22.232 10.1518C22.232 12.0717 22.0017 13.9915 22.0017 13.9915C21.9248 14.4139 21.6945 15.6426 21.1953 16.1802C20.5425 16.9481 19.7746 17.0249 19.3522 17.0633H19.237C16.1652 17.2937 11.5192 17.2937 11.4808 17.2937C11.4424 17.2937 5.68283 17.2169 3.99333 17.0249C3.87814 17.0249 3.76295 16.9866 3.64776 16.9866C3.11018 16.9482 2.34227 16.833 1.72788 16.1418C1.26711 15.6427 0.998345 14.414 0.959918 13.9916C0.959918 13.9532 0.729534 12.0333 0.729534 10.1519V8.34717C0.729534 6.42729 0.959918 4.50745 0.959918 4.50745C0.9983 4.08507 1.26711 2.85638 1.72788 2.31881C2.41903 1.55084 3.14856 1.47404 3.60933 1.43565H3.72452C6.79632 1.20527 11.4424 1.16689 11.4808 1.16689C11.5191 1.16689 16.1653 1.20527 19.237 1.43565H19.3906C19.813 1.47404 20.5809 1.55084 21.2336 2.31881C21.6944 2.85638 21.9248 4.08507 22.0016 4.50745C22.04 4.58426 22.232 6.5041 22.232 8.34717V10.1518H22.232Z" fill="white"/>
<path d="M16.2805 9.26881L8.98502 5.0067C8.86982 4.92989 8.71625 4.92989 8.60106 5.0067C8.48587 5.08351 8.40906 5.19871 8.40906 5.35228V13.6845C8.40906 13.8381 8.48587 13.9532 8.60106 14.0301C8.67787 14.0684 8.71625 14.0684 8.79306 14.0684C8.86987 14.0684 8.90825 14.0684 8.98506 14.0301L16.2805 9.95996C16.3957 9.88315 16.4725 9.76795 16.4725 9.61438C16.4725 9.46081 16.3957 9.34557 16.2805 9.26881ZM9.17702 13.0317V6.005L15.3206 9.61434L9.17702 13.0317Z" fill="white"/>
</svg>
